<?xml version="1.0" encoding="utf-8"?>
<!-- Generator: Adobe Illustrator 18.0.0, SVG Export Plug-In . SVG Version: 6.00 Build 0)  -->
<!DOCTYPE svg PUBLIC "-//W3C//DTD SVG 1.1//EN" "http://www.w3.org/Graphics/SVG/1.1/DTD/svg11.dtd">
<svg version="1.1" xmlns="http://www.w3.org/2000/svg" xmlns:xlink="http://www.w3.org/1999/xlink" x="0px" y="0px"
	 viewBox="0 0 125 248.5" enable-background="new 0 0 125 248.5" xml:space="preserve">
<g id="Background">
</g>
<g id="Outer_Case_1_">
	<path fill="#EB1D24" d="M125,248.5H0V49.7C0,22.3,18.7,0,41.7,0h41.7c23,0,41.7,22.3,41.7,49.7V248.5z"/>
</g>
<g id="can_x5F_window">
	<path fill="#EDE2E3" stroke="#48554D" stroke-width="7" stroke-miterlimit="10" d="M93.8,175c0,7.7-5.6,13.9-12.5,13.9H43.8
		c-6.9,0-12.5-6.2-12.5-13.9V53.6c0-7.7,5.6-13.9,12.5-13.9h37.5c6.9,0,12.5,6.2,12.5,13.9V175z"/>
</g>
<g id="can_receiver">
	<path fill="#EDE2E3" d="M108.3,221.3c0,6.8-4.3,12.3-9.6,12.3H34.6c-5.3,0-9.6-5.5-9.6-12.3v-5.1c0-6.8,4.3-12.3,9.6-12.3h64.1
		c5.3,0,9.6,5.5,9.6,12.3V221.3z"/>
</g>
<g id="coke_button">
	<ellipse fill="#EDE2E3" cx="104.2" cy="49.7" rx="4.2" ry="5"/>
	<ellipse fill="#EDE2E3" cx="104.2" cy="79.5" rx="4.2" ry="5"/>
	<ellipse fill="#EDE2E3" cx="104.2" cy="109.3" rx="4.2" ry="5"/>
	<ellipse fill="#EDE2E3" cx="104.2" cy="139.2" rx="4.2" ry="5"/>
	<ellipse fill="#EDE2E3" cx="104.2" cy="169" rx="4.2" ry="5"/>
</g>
<g id="Coca-Cola_text">
	<g>
		<path fill="#FFFFFF" d="M54.9,6c0,0.6-0.6,1.4-1.9,2.5c-2.3,2.1-4.6,3.1-6.9,3.1c-0.6,0-1.2,0-1.6-0.1c-0.5-0.1-1.4-0.5-2.5-1.2
			c-3.7-2.1-6-3.2-7-3.2c-0.5,0-0.8,0.1-0.8,0.3c0,0.1,0,0.3,0.1,0.5c0,0.2,0.1,0.4,0.1,0.5c0,1.3-0.5,2.6-1.4,3.8
			c-1,1.3-2.2,1.9-3.5,1.9L28.4,14L28,13.1c0-1.1,0.5-2.3,1.6-3.6c1-1.3,2.1-2.1,3.1-2.5c-0.4-0.1-0.6-0.2-0.7-0.2
			c-1.7,0-3.5,1.2-5.6,3.5c-1.5,1.7-2.9,3.6-4,5.7c-1.3,2.4-2,4.4-2,5.8c0,1.9,0.7,2.8,2.1,2.8c1.4,0,2.7-0.8,3.9-2.3
			c1.2-1.4,1.7-2.9,1.7-4.3c0-0.2-0.1-0.4-0.2-0.6c-0.2-0.2-0.3-0.3-0.5-0.3c-0.3,0-0.8,0.3-1.4,1l-0.1,0c-0.2,0.4-0.5,1.1-0.9,2.3
			c-0.4,0.2-0.9,0.5-1.4,0.8l-1.3,0.9h-0.1c0-0.2-0.1-0.3-0.1-0.4c0-1.5,0.4-2.8,1.2-3.9c0.9-1.3,2-1.9,3.4-1.9s2.1,0.7,2.1,2
			c0,2-0.8,3.9-2.4,5.7c-1.6,1.8-3.4,2.8-5.4,2.8c-2.8,0-4.3-1.3-4.3-3.8c0-2.3,0.9-4.8,2.7-7.6c1.6-2.5,3.4-4.5,5.4-6.2
			c2.4-2,4.7-3,6.8-3c0.3,0,0.6,0.1,1,0.2s0.8,0.3,1,0.5c1-0.5,2.1-0.7,3.3-0.7v0c1.1,0,2.3,0.4,3.5,1c0.3,0.1,1.3,0.7,3,1.8
			c1.1,0.6,1.8,1,2.4,1h0.5c1.6,0,3.1-0.3,4.4-1c0.7-0.4,1.9-1.3,3.7-2.7h0.1v0L54.9,6z M33.4,8.6c0-0.1,0-0.2-0.1-0.5s0-0.4,0-0.5
			c-1.9,0.8-3.2,2.3-4.1,4.4c-0.1,0.3-0.2,0.6-0.2,0.7c0,0.4,0.2,0.6,0.7,0.6c0.9,0,1.8-0.6,2.6-1.8C33,10.6,33.4,9.6,33.4,8.6z"/>
		<path fill="#FFFFFF" d="M38.1,20.1c0,0.2-0.3,0.4-0.8,0.5c-0.4,0.1-0.8,0.2-1.1,0.2c-0.2,0-0.4,0-0.6,0c-0.7,1.3-1.5,2.4-2.4,3.5
			c-1.3,1.4-2.4,2.2-3.5,2.2c-1.4,0-2.1-0.6-2.1-1.9c0-1.6,0.8-3.3,2.3-5.3c1.6-2,3.2-3.1,4.8-3.1c1.2,0,1.8,0.6,1.8,1.7
			c0,0.4-0.2,1.1-0.6,2.2c0.2,0.1,0.3,0.1,0.5,0.1c0.1,0,0.4,0,0.6-0.1c0.3-0.1,0.5-0.1,0.6-0.1C38,19.9,38.1,20,38.1,20.1z
			 M34.9,20.6c-1-0.1-1.7-0.6-2.1-1.4c-0.3,0.4-0.8,1.1-1.3,2.3v0c0,0.2-0.2,0.6-0.4,1.1c-0.2,0.5-0.3,0.9-0.3,1.2
			c0,0.4,0.2,0.5,0.5,0.5C32.4,24.2,33.6,23,34.9,20.6z M35.8,18c0-0.6-0.2-0.9-0.7-0.9c-0.3,0-0.7,0.2-1.1,0.5
			c-0.4,0.3-0.6,0.7-0.6,1c0,0.3,0.2,0.7,0.6,1S34.6,20,35,20c0,0,0.1,0,0.1,0v0c0.2,0,0.3-0.3,0.5-0.9C35.7,18.6,35.8,18.2,35.8,18
			z"/>
		<path fill="#FFFFFF" d="M45.5,17.5c0,0.5-0.2,1-0.6,1.6c-0.4,0.6-0.9,0.9-1.3,0.9c-0.1,0-0.3-0.1-0.5-0.3
			c-0.1-0.2-0.1-0.4-0.1-0.5c0-0.4,0.2-0.8,0.6-1.2c0.4-0.4,0.8-0.5,1.2-0.4c0-0.3-0.2-0.5-0.7-0.5c-0.9,0-1.9,1-3.1,2.9
			c-1.1,1.8-1.7,3.2-1.7,4.2c0,0.4,0.2,0.6,0.5,0.6c0.8,0,1.5-0.3,2.3-1c0.3-0.3,0.9-0.9,1.7-1.8c0.6-0.6,1-1,1.2-1
			c0.1,0,0.1,0,0.1,0.1c0,0.2-0.5,1-1.6,2.3c-1.5,1.9-3.1,2.8-4.7,2.8c-1.5,0-2.3-0.7-2.3-2.1c0-0.5,0.1-1.2,0.4-2
			c0.3-0.8,0.5-1.4,0.8-1.9c1.9-3,3.9-4.5,6.1-4.5c0.4,0,0.8,0.1,1.1,0.4S45.5,17.1,45.5,17.5z"/>
		<path fill="#FFFFFF" d="M55.8,16c-0.3,1-0.9,2.3-2,3.9c-1.1,1.7-1.8,3-2.1,3.8L52,24c0.7-0.2,1.4-0.8,1.9-1.6
			c0.6-0.8,0.9-1.3,1-1.3H55c0.1,0.1,0.1,0.2,0.1,0.3c0,0.7-0.6,1.7-1.9,3c-1.3,1.3-2.2,1.9-3,1.9c-0.6,0-1-0.1-1.2-0.4
			c-0.1-0.1-0.2-0.5-0.5-1.2c-0.6,1.1-1.4,1.6-2.5,1.6c-0.5,0-0.9-0.2-1.3-0.6c-0.4-0.4-0.5-0.9-0.5-1.3c0-1.4,0.9-3.1,2.7-5.2
			c1.8-2.1,3.4-3.2,4.7-3.2c0.2,0,0.4,0.1,0.8,0.3c0.3,0.2,0.6,0.3,0.8,0.3c0.1-0.1,0.2-0.2,0.2-0.4c0.2-0.2,0.6-0.2,1.1-0.2
			C55.1,16,55.6,16,55.8,16z M52.8,17.3c-0.1-0.2-0.2-0.3-0.5-0.3c-0.3,0-0.5,0.1-0.8,0.3v0C50.6,18,49.8,19,49,20.2
			c-0.9,1.4-1.4,2.5-1.4,3.5c0,0.4,0.2,0.6,0.5,0.6c0.4,0,1.3-1,2.6-3C51.8,19.3,52.5,18.1,52.8,17.3z"/>
		<path fill="#FFFFFF" d="M64,20.4h-7.8v-2.1H64V20.4z"/>
		<path fill="#FFFFFF" d="M103.1,6c0,0.6-0.6,1.4-1.9,2.5c-2.3,2.1-4.6,3.1-6.9,3.1c-0.6,0-1.2,0-1.6-0.1c-0.5-0.1-1.4-0.5-2.5-1.2
			c-3.7-2.1-6-3.2-7-3.2c-0.5,0-0.8,0.1-0.8,0.3c0,0.1,0,0.3,0.1,0.5c0,0.2,0.1,0.4,0.1,0.5c0,1.3-0.5,2.6-1.4,3.8
			c-1,1.3-2.2,1.9-3.5,1.9L76.6,14l-0.4-0.9c0-1.1,0.5-2.3,1.6-3.6c1-1.3,2.1-2.1,3.1-2.5c-0.4-0.1-0.6-0.2-0.7-0.2
			c-1.7,0-3.5,1.2-5.6,3.5c-1.5,1.7-2.9,3.6-4,5.7c-1.3,2.4-2,4.4-2,5.8c0,1.9,0.7,2.8,2.1,2.8c1.4,0,2.7-0.8,3.9-2.3
			c1.2-1.4,1.7-2.9,1.7-4.3c0-0.2-0.1-0.4-0.2-0.6c-0.2-0.2-0.3-0.3-0.5-0.3c-0.3,0-0.8,0.3-1.4,1l-0.1,0c-0.2,0.4-0.5,1.1-0.9,2.3
			c-0.4,0.2-0.9,0.5-1.4,0.8l-1.3,0.9h-0.1c0-0.2-0.1-0.3-0.1-0.4c0-1.5,0.4-2.8,1.2-3.9c0.9-1.3,2-1.9,3.4-1.9s2.1,0.7,2.1,2
			c0,2-0.8,3.9-2.4,5.7c-1.6,1.8-3.4,2.8-5.4,2.8c-2.8,0-4.3-1.3-4.3-3.8c0-2.3,0.9-4.8,2.7-7.6c1.6-2.5,3.4-4.5,5.4-6.2
			c2.4-2,4.7-3,6.8-3c0.3,0,0.6,0.1,1,0.2s0.8,0.3,1,0.5c1-0.5,2.1-0.7,3.3-0.7v0c1.1,0,2.3,0.4,3.5,1c0.3,0.1,1.3,0.7,3,1.8
			c1.1,0.6,1.8,1,2.4,1h0.5c1.6,0,3.1-0.3,4.4-1c0.7-0.4,1.9-1.3,3.7-2.7h0.1v0L103.1,6z M81.5,8.6c0-0.1,0-0.2-0.1-0.5s0-0.4,0-0.5
			c-1.9,0.8-3.2,2.3-4.1,4.4c-0.1,0.3-0.2,0.6-0.2,0.7c0,0.4,0.2,0.6,0.7,0.6c0.9,0,1.8-0.6,2.6-1.8C81.1,10.6,81.5,9.6,81.5,8.6z"
			/>
		<path fill="#FFFFFF" d="M86.2,20.1c0,0.2-0.3,0.4-0.8,0.5c-0.4,0.1-0.8,0.2-1.1,0.2c-0.2,0-0.4,0-0.6,0c-0.7,1.3-1.5,2.4-2.4,3.5
			c-1.3,1.4-2.4,2.2-3.5,2.2c-1.4,0-2.1-0.6-2.1-1.9c0-1.6,0.8-3.3,2.3-5.3c1.6-2,3.2-3.1,4.8-3.1c1.2,0,1.8,0.6,1.8,1.7
			c0,0.4-0.2,1.1-0.6,2.2c0.2,0.1,0.3,0.1,0.5,0.1c0.1,0,0.4,0,0.6-0.1c0.3-0.1,0.5-0.1,0.6-0.1C86.1,19.9,86.2,20,86.2,20.1z
			 M83,20.6c-1-0.1-1.7-0.6-2.1-1.4c-0.3,0.4-0.8,1.1-1.3,2.3v0c0,0.2-0.2,0.6-0.4,1.1c-0.2,0.5-0.3,0.9-0.3,1.2
			c0,0.4,0.2,0.5,0.5,0.5C80.5,24.2,81.7,23,83,20.6z M84,18c0-0.6-0.2-0.9-0.7-0.9c-0.3,0-0.7,0.2-1.1,0.5c-0.4,0.3-0.6,0.7-0.6,1
			c0,0.3,0.2,0.7,0.6,1s0.7,0.5,1.1,0.5c0,0,0.1,0,0.1,0v0c0.2,0,0.3-0.3,0.5-0.9C83.9,18.6,84,18.2,84,18z"/>
		<path fill="#FFFFFF" d="M99.8,7c0,0.6-0.2,1.3-0.6,2c-1.7,3-4.2,6-7.6,8.9C91,18.4,90.2,19.1,89,20c-0.3,0.2-0.5,0.8-0.8,1.7
			c-0.3,0.9-0.4,1.5-0.4,2l0.3,0.6c0.1,0,0.1,0,0.1,0c0.4,0,0.9-0.4,1.6-1.3c0.7-0.8,1.2-1.3,1.4-1.3c0.1,0,0.1,0,0.1,0.1
			c0,0.2-0.4,0.8-1.2,1.7c-1.6,1.9-2.7,2.8-3.4,2.8c-0.4,0-0.8-0.2-1.1-0.5c-0.3-0.3-0.4-0.7-0.4-1.2c0-1.1,0.3-2.5,0.9-4.2
			c1.1-3.1,2.8-6.1,5.1-9.1c2.8-3.7,5.2-5.6,7.1-5.6C99.3,6.1,99.8,6.4,99.8,7z M99,7.5C98.8,7.1,98.7,7,98.5,7
			c-1.2,0-3,1.7-5.3,5.1c-2,2.9-3.3,5.2-3.9,7c1.5-1,3.4-2.7,5.6-5.3C97.4,10.9,98.8,8.8,99,7.5z"/>
		<path fill="#FFFFFF" d="M102.5,16c-0.3,1-0.9,2.3-2,3.9c-1.1,1.7-1.8,3-2.1,3.8l0.2,0.2c0.7-0.2,1.4-0.8,1.9-1.6s0.9-1.3,1-1.3
			h0.1c0.1,0.1,0.1,0.2,0.1,0.3c0,0.7-0.6,1.7-1.9,3c-1.3,1.3-2.2,1.9-3,1.9c-0.6,0-1-0.1-1.2-0.4c-0.1-0.1-0.2-0.5-0.5-1.2
			c-0.6,1.1-1.4,1.6-2.5,1.6c-0.5,0-0.9-0.2-1.3-0.6c-0.4-0.4-0.5-0.9-0.5-1.3c0-1.4,0.9-3.1,2.7-5.2s3.4-3.2,4.7-3.2
			c0.2,0,0.4,0.1,0.8,0.3c0.3,0.2,0.6,0.3,0.8,0.3c0.1-0.1,0.2-0.2,0.2-0.4c0.2-0.2,0.6-0.2,1.1-0.2C101.8,16,102.2,16,102.5,16z
			 M99.5,17.3C99.4,17.1,99.2,17,99,17c-0.3,0-0.5,0.1-0.8,0.3v0c-0.9,0.7-1.7,1.7-2.5,2.9c-0.9,1.4-1.4,2.5-1.4,3.5
			c0,0.4,0.2,0.6,0.5,0.6c0.4,0,1.3-1,2.6-3C98.4,19.3,99.2,18.1,99.5,17.3z"/>
	</g>
</g>
<g id="Ice_Cold_text">
	<g>
		<path fill="#FFFFFF" d="M24.4,246.6h-3.1v-0.4c0.1,0,0.2,0,0.4,0s0.3,0,0.4-0.1c0.1,0,0.2-0.1,0.2-0.2c0-0.1,0.1-0.2,0.1-0.3v-5.6
			c0-0.1,0-0.2-0.1-0.3c0-0.1-0.1-0.2-0.3-0.2c-0.1,0-0.2-0.1-0.4-0.1c-0.1,0-0.3-0.1-0.4-0.1v-0.4h3.1v0.4c-0.1,0-0.2,0-0.4,0
			c-0.1,0-0.3,0.1-0.4,0.1c-0.1,0-0.2,0.1-0.2,0.2s-0.1,0.2-0.1,0.3v5.6c0,0.1,0,0.2,0.1,0.3s0.1,0.2,0.2,0.2c0.1,0,0.2,0.1,0.3,0.1
			c0.2,0,0.3,0.1,0.4,0.1V246.6z"/>
		<path fill="#FFFFFF" d="M34.3,246.8c-0.4,0-0.8-0.1-1.2-0.3s-0.7-0.4-1-0.8c-0.3-0.3-0.5-0.8-0.7-1.3c-0.2-0.5-0.3-1.1-0.3-1.7
			c0-0.6,0.1-1.2,0.3-1.7c0.2-0.5,0.4-0.9,0.7-1.3c0.3-0.4,0.6-0.6,1.1-0.8c0.4-0.2,0.8-0.3,1.3-0.3c0.3,0,0.7,0,0.9,0.1
			c0.3,0.1,0.5,0.2,0.8,0.4l0.2-0.4h0.4l0,2.8h-0.4c-0.1-0.3-0.1-0.6-0.2-0.9s-0.2-0.6-0.4-0.8c-0.2-0.2-0.3-0.4-0.6-0.6
			s-0.5-0.2-0.7-0.2c-0.3,0-0.6,0.1-0.9,0.2c-0.3,0.2-0.5,0.4-0.7,0.7c-0.2,0.3-0.3,0.7-0.4,1.1c-0.1,0.5-0.2,1-0.2,1.5
			c0,0.5,0.1,1,0.2,1.4c0.1,0.4,0.3,0.8,0.5,1.1c0.2,0.3,0.5,0.6,0.7,0.7s0.6,0.3,1,0.3c0.3,0,0.5,0,0.7-0.1
			c0.2-0.1,0.4-0.2,0.6-0.4c0.2-0.2,0.3-0.3,0.4-0.5c0.1-0.2,0.2-0.4,0.3-0.7l0.4,0.2c-0.3,0.8-0.7,1.3-1.1,1.7
			C35.5,246.6,34.9,246.8,34.3,246.8z"/>
		<path fill="#FFFFFF" d="M49.6,244.3l-0.1,2.3h-5.8v-0.4c0.1,0,0.2,0,0.4,0c0.2,0,0.3,0,0.3-0.1c0.1-0.1,0.2-0.1,0.2-0.2
			s0.1-0.2,0.1-0.3v-5.6c0-0.1,0-0.2-0.1-0.3c0-0.1-0.1-0.2-0.2-0.2c-0.1,0-0.2-0.1-0.4-0.1c-0.1,0-0.3-0.1-0.4-0.1v-0.4H49v1.9
			h-0.4c-0.1-0.3-0.2-0.6-0.4-0.9c-0.2-0.3-0.4-0.5-0.6-0.5c-0.1,0-0.2,0-0.4,0c-0.1,0-0.3,0-0.5,0h-1.1v3.1h0.8
			c0.3,0,0.4,0,0.6-0.1c0.1-0.1,0.2-0.1,0.3-0.3c0.1-0.1,0.1-0.2,0.2-0.4s0.1-0.3,0.1-0.5H48v3.1h-0.4c0-0.2,0-0.4-0.1-0.6
			c-0.1-0.2-0.1-0.3-0.2-0.4c-0.1-0.1-0.2-0.2-0.3-0.3c-0.1,0-0.3-0.1-0.5-0.1h-0.8v2.3c0,0.2,0,0.4,0,0.6c0,0.1,0.1,0.2,0.2,0.3
			s0.2,0.1,0.3,0.1c0.1,0,0.4,0,0.6,0c0.1,0,0.2,0,0.4,0c0.2,0,0.3,0,0.4,0c0.1,0,0.3,0,0.4-0.1c0.1,0,0.2-0.1,0.3-0.2
			c0.2-0.2,0.3-0.4,0.5-0.8c0.2-0.4,0.3-0.6,0.3-0.8H49.6z"/>
		<path fill="#FFFFFF" d="M67.8,246.8c-0.4,0-0.8-0.1-1.2-0.3s-0.7-0.4-1-0.8c-0.3-0.3-0.5-0.8-0.7-1.3c-0.2-0.5-0.3-1.1-0.3-1.7
			c0-0.6,0.1-1.2,0.3-1.7c0.2-0.5,0.4-0.9,0.7-1.3c0.3-0.4,0.6-0.6,1.1-0.8c0.4-0.2,0.8-0.3,1.3-0.3c0.3,0,0.7,0,0.9,0.1
			c0.3,0.1,0.5,0.2,0.8,0.4l0.2-0.4h0.4l0,2.8h-0.4c-0.1-0.3-0.1-0.6-0.2-0.9s-0.2-0.6-0.4-0.8c-0.2-0.2-0.3-0.4-0.6-0.6
			s-0.5-0.2-0.7-0.2c-0.3,0-0.6,0.1-0.9,0.2c-0.3,0.2-0.5,0.4-0.7,0.7c-0.2,0.3-0.3,0.7-0.4,1.1c-0.1,0.5-0.2,1-0.2,1.5
			c0,0.5,0.1,1,0.2,1.4c0.1,0.4,0.3,0.8,0.5,1.1c0.2,0.3,0.5,0.6,0.7,0.7s0.6,0.3,1,0.3c0.3,0,0.5,0,0.7-0.1
			c0.2-0.1,0.4-0.2,0.6-0.4c0.2-0.2,0.3-0.3,0.4-0.5c0.1-0.2,0.2-0.4,0.3-0.7l0.4,0.2c-0.3,0.8-0.7,1.3-1.1,1.7
			C69,246.6,68.4,246.8,67.8,246.8z"/>
		<path fill="#FFFFFF" d="M82.8,239.7c0.3,0.4,0.5,0.8,0.7,1.3c0.2,0.5,0.3,1.1,0.3,1.7c0,0.6-0.1,1.2-0.3,1.7
			c-0.2,0.5-0.4,0.9-0.7,1.3c-0.3,0.4-0.7,0.6-1.1,0.8s-0.8,0.3-1.3,0.3c-0.5,0-0.9-0.1-1.3-0.3s-0.8-0.5-1.1-0.8
			c-0.3-0.4-0.5-0.8-0.7-1.3c-0.2-0.5-0.3-1-0.3-1.6c0-0.6,0.1-1.2,0.3-1.7s0.4-0.9,0.7-1.3c0.3-0.4,0.7-0.6,1.1-0.8
			c0.4-0.2,0.8-0.3,1.3-0.3c0.5,0,0.9,0.1,1.3,0.3C82.2,239.1,82.5,239.4,82.8,239.7z M82.1,245.2c0.2-0.3,0.3-0.7,0.4-1.1
			c0.1-0.4,0.1-0.9,0.1-1.4c0-0.5,0-1-0.1-1.5c-0.1-0.4-0.2-0.8-0.4-1.1c-0.2-0.3-0.4-0.6-0.7-0.7c-0.3-0.2-0.6-0.3-0.9-0.3
			c-0.4,0-0.7,0.1-1,0.3s-0.5,0.5-0.7,0.8c-0.2,0.3-0.3,0.7-0.4,1.1s-0.1,0.9-0.1,1.4c0,0.5,0,1,0.1,1.4c0.1,0.4,0.2,0.8,0.4,1.1
			c0.2,0.3,0.4,0.6,0.7,0.8c0.3,0.2,0.6,0.3,1,0.3c0.3,0,0.7-0.1,0.9-0.3C81.7,245.8,81.9,245.6,82.1,245.2z"/>
		<path fill="#FFFFFF" d="M96.3,244.3l-0.1,2.3h-5.4v-0.4c0.1,0,0.2,0,0.3,0c0.1,0,0.3,0,0.3-0.1c0.1,0,0.2-0.1,0.2-0.2
			c0-0.1,0.1-0.2,0.1-0.4V240c0-0.1,0-0.2-0.1-0.3c0-0.1-0.1-0.2-0.2-0.2c-0.1,0-0.2-0.1-0.3-0.1c-0.1,0-0.2-0.1-0.3-0.1v-0.4h2.9
			v0.4c-0.1,0-0.2,0-0.4,0.1c-0.1,0-0.3,0.1-0.3,0.1c-0.1,0-0.2,0.1-0.2,0.2c0,0.1-0.1,0.2-0.1,0.3v5.2c0,0.2,0,0.4,0,0.6
			s0.1,0.2,0.1,0.3c0.1,0.1,0.2,0.1,0.3,0.1c0.1,0,0.4,0,0.6,0c0.1,0,0.2,0,0.4,0c0.1,0,0.3,0,0.4,0c0.1,0,0.2-0.1,0.3-0.1
			c0.1,0,0.2-0.1,0.2-0.1c0.1-0.2,0.3-0.4,0.5-0.8c0.2-0.3,0.3-0.6,0.4-0.8H96.3z"/>
		<path fill="#FFFFFF" d="M109.4,242.7c0,0.7-0.1,1.2-0.3,1.7c-0.2,0.5-0.5,0.9-0.9,1.2c-0.4,0.3-0.8,0.5-1.2,0.7
			c-0.4,0.2-0.9,0.2-1.4,0.2h-2.9v-0.4c0.1,0,0.2,0,0.4,0c0.2,0,0.3,0,0.3-0.1c0.1,0,0.2-0.1,0.2-0.2c0-0.1,0.1-0.2,0.1-0.3v-5.6
			c0-0.1,0-0.2-0.1-0.3c0-0.1-0.1-0.2-0.2-0.2c-0.1-0.1-0.2-0.1-0.3-0.1c-0.1,0-0.2,0-0.3,0v-0.4h3c0.4,0,0.8,0.1,1.2,0.2
			s0.8,0.3,1.1,0.6c0.4,0.3,0.7,0.8,1,1.3C109.3,241.4,109.4,242,109.4,242.7z M108.2,242.7c0-0.5-0.1-1-0.2-1.4
			c-0.1-0.4-0.3-0.8-0.5-1.1c-0.2-0.3-0.5-0.5-0.8-0.7s-0.7-0.3-1.1-0.3c-0.1,0-0.3,0-0.5,0c-0.2,0-0.3,0-0.4,0v6
			c0,0.3,0.1,0.6,0.3,0.7c0.2,0.1,0.4,0.2,0.8,0.2c0.4,0,0.8-0.1,1.1-0.2c0.3-0.2,0.6-0.4,0.8-0.7c0.2-0.3,0.4-0.7,0.4-1.1
			C108.2,243.7,108.2,243.3,108.2,242.7z"/>
	</g>
</g>
<g id="Can_trays">
	<rect x="34.5" y="67.1" fill="#FFFFFF" width="56" height="5"/>
	<rect x="34.2" y="96.9" fill="#FFFFFF" width="56.7" height="5"/>
	<rect x="34.2" y="126.7" fill="#FFFFFF" width="56.7" height="5"/>
	<rect x="34.2" y="156.6" fill="#FFFFFF" width="56.7" height="5"/>
</g>
</svg>
